<?xml version="1.0" encoding="UTF-8" standalone="no"?>
<!-- Created with Inkscape (http://www.inkscape.org/) -->

<svg
   width="1000px"
   height="1000px"
   viewBox="0 0 1000 1000"
   version="1.1"
   id="SVGRoot"
   sodipodi:docname="DigiWACS.svg"
   xml:space="preserve"
   inkscape:export-filename="tac_crest_ver0_2.png"
   inkscape:export-xdpi="96"
   inkscape:export-ydpi="96"
   inkscape:version="1.2.1 (9c6d41e410, 2022-07-14)"
   xmlns:inkscape="http://www.inkscape.org/namespaces/inkscape"
   xmlns:sodipodi="http://sodipodi.sourceforge.net/DTD/sodipodi-0.dtd"
   xmlns:xlink="http://www.w3.org/1999/xlink"
   xmlns="http://www.w3.org/2000/svg"
   xmlns:svg="http://www.w3.org/2000/svg"><sodipodi:namedview
     id="namedview226"
     pagecolor="#505050"
     bordercolor="#eeeeee"
     borderopacity="1"
     inkscape:showpageshadow="0"
     inkscape:pageopacity="0"
     inkscape:pagecheckerboard="0"
     inkscape:deskcolor="#505050"
     inkscape:document-units="px"
     showgrid="false"
     inkscape:zoom="0.57558492"
     inkscape:cx="263.21051"
     inkscape:cy="489.93639"
     inkscape:window-width="1920"
     inkscape:window-height="1009"
     inkscape:window-x="1912"
     inkscape:window-y="-8"
     inkscape:window-maximized="1"
     inkscape:current-layer="layer2" /><defs
     id="defs221"><rect
       x="-386.97789"
       y="97.051597"
       width="463.14496"
       height="160.93366"
       id="rect3839" /><rect
       x="-364.86486"
       y="81.081081"
       width="1159.7052"
       height="174.44717"
       id="rect20754" /><rect
       x="-399.2629"
       y="36.855037"
       width="1369.7789"
       height="189.18919"
       id="rect20487" /><inkscape:path-effect
       effect="bspline"
       id="path-effect16138"
       is_visible="true"
       lpeversion="1"
       weight="33.333333"
       steps="2"
       helper_size="0"
       apply_no_weight="true"
       apply_with_weight="true"
       only_selected="false" /><inkscape:path-effect
       effect="bspline"
       id="path-effect16082"
       is_visible="true"
       lpeversion="1"
       weight="33.333333"
       steps="2"
       helper_size="0"
       apply_no_weight="true"
       apply_with_weight="true"
       only_selected="false" /><inkscape:path-effect
       effect="bspline"
       id="path-effect16036"
       is_visible="true"
       lpeversion="1"
       weight="33.333333"
       steps="2"
       helper_size="0"
       apply_no_weight="true"
       apply_with_weight="true"
       only_selected="false" /><inkscape:path-effect
       effect="bspline"
       id="path-effect15817"
       is_visible="true"
       lpeversion="1"
       weight="33.333333"
       steps="2"
       helper_size="0"
       apply_no_weight="true"
       apply_with_weight="true"
       only_selected="false" /><rect
       x="-300.9828"
       y="50.36855"
       width="889.43488"
       height="82.309583"
       id="rect15713" /><rect
       x="-283.78378"
       y="-1.2285012"
       width="466.83047"
       height="83.538084"
       id="rect15707" /><rect
       x="9.8280098"
       y="3.6855037"
       width="992.62899"
       height="149.87715"
       id="rect15563" /><inkscape:path-effect
       effect="bend_path"
       id="path-effect14053"
       is_visible="true"
       lpeversion="1"
       bendpath="M 1067.1189,392.88418 C 1247.7426,55.254734 1649.846,159.18319 1743.8639,382.54669"
       prop_scale="1"
       scale_y_rel="false"
       vertical="false"
       hide_knot="false"
       bendpath-nodetypes="cc" /><inkscape:path-effect
       effect="skeletal"
       id="path-effect13240"
       is_visible="true"
       lpeversion="1"
       pattern="M 0,0 H 1"
       copytype="single_stretched"
       prop_scale="1"
       scale_y_rel="false"
       spacing="0"
       normal_offset="0"
       tang_offset="0"
       prop_units="false"
       vertical_pattern="false"
       hide_knot="false"
       fuse_tolerance="0" /><inkscape:path-effect
       effect="bend_path"
       id="path-effect13189"
       is_visible="true"
       lpeversion="1"
       bendpath="m 1163.3915,471.47614 c 139.2392,-336.93575 571.6073,-325.99387 707.0186,-7.371"
       prop_scale="1.0647113"
       scale_y_rel="false"
       vertical="false"
       hide_knot="false"
       bendpath-nodetypes="cc" /><rect
       x="1066.3391"
       y="136.36364"
       width="974.20147"
       height="110.56511"
       id="rect13098" /><rect
       x="15.970516"
       y="17.199017"
       width="1214.9877"
       height="239.55774"
       id="rect13092" /><inkscape:path-effect
       effect="bspline"
       id="path-effect12565"
       is_visible="true"
       lpeversion="1"
       weight="33.333333"
       steps="2"
       helper_size="0"
       apply_no_weight="true"
       apply_with_weight="true"
       only_selected="false" /><inkscape:path-effect
       effect="powerstroke"
       id="path-effect12557"
       is_visible="true"
       lpeversion="1"
       offset_points="2,18.867925"
       not_jump="false"
       sort_points="true"
       interpolator_type="CubicBezierJohan"
       interpolator_beta="0.2"
       start_linecap_type="zerowidth"
       linejoin_type="extrp_arc"
       miter_limit="4"
       scale_width="1"
       end_linecap_type="zerowidth" /><inkscape:path-effect
       effect="bspline"
       id="path-effect12555"
       is_visible="true"
       lpeversion="1"
       weight="33.333333"
       steps="2"
       helper_size="0"
       apply_no_weight="true"
       apply_with_weight="true"
       only_selected="false" /><inkscape:path-effect
       effect="powerstroke"
       id="path-effect12547"
       is_visible="true"
       lpeversion="1"
       offset_points="0,18.867925"
       not_jump="false"
       sort_points="true"
       interpolator_type="CubicBezierJohan"
       interpolator_beta="0.2"
       start_linecap_type="zerowidth"
       linejoin_type="extrp_arc"
       miter_limit="4"
       scale_width="1"
       end_linecap_type="zerowidth" /><inkscape:path-effect
       effect="powerstroke"
       id="path-effect12539"
       is_visible="true"
       lpeversion="1"
       offset_points="0,18.867925"
       not_jump="false"
       sort_points="true"
       interpolator_type="CubicBezierJohan"
       interpolator_beta="0.2"
       start_linecap_type="zerowidth"
       linejoin_type="extrp_arc"
       miter_limit="4"
       scale_width="1"
       end_linecap_type="zerowidth" /><inkscape:path-effect
       effect="bspline"
       id="path-effect12537"
       is_visible="true"
       lpeversion="1"
       weight="33.333333"
       steps="2"
       helper_size="0"
       apply_no_weight="true"
       apply_with_weight="true"
       only_selected="false" /><inkscape:path-effect
       effect="powerstroke"
       id="path-effect12529"
       is_visible="true"
       lpeversion="1"
       offset_points="0,18.867925"
       not_jump="false"
       sort_points="true"
       interpolator_type="CubicBezierJohan"
       interpolator_beta="0.2"
       start_linecap_type="zerowidth"
       linejoin_type="extrp_arc"
       miter_limit="4"
       scale_width="1"
       end_linecap_type="zerowidth" /><inkscape:path-effect
       effect="bspline"
       id="path-effect11546"
       is_visible="true"
       lpeversion="1"
       weight="33.333333"
       steps="2"
       helper_size="0"
       apply_no_weight="true"
       apply_with_weight="true"
       only_selected="false" /><inkscape:path-effect
       effect="fill_between_many"
       method="bsplinespiro"
       linkedpaths="#path12527,0,1"
       id="path-effect12531" /><inkscape:path-effect
       effect="fill_between_many"
       method="bsplinespiro"
       linkedpaths="#path12535,0,1"
       id="path-effect12541" /><inkscape:path-effect
       effect="fill_between_many"
       method="bsplinespiro"
       linkedpaths="#path12545,0,1"
       id="path-effect12549" /><inkscape:path-effect
       effect="fill_between_many"
       method="bsplinespiro"
       linkedpaths="#path12553,0,1"
       id="path-effect12559" /><inkscape:path-effect
       effect="bspline"
       id="path-effect16036-9"
       is_visible="true"
       lpeversion="1"
       weight="33.333333"
       steps="2"
       helper_size="0"
       apply_no_weight="true"
       apply_with_weight="true"
       only_selected="false" /><inkscape:path-effect
       effect="bspline"
       id="path-effect16036-6"
       is_visible="true"
       lpeversion="1"
       weight="33.333333"
       steps="2"
       helper_size="0"
       apply_no_weight="true"
       apply_with_weight="true"
       only_selected="false" /><inkscape:path-effect
       effect="bspline"
       id="path-effect16082-7"
       is_visible="true"
       lpeversion="1"
       weight="33.333333"
       steps="2"
       helper_size="0"
       apply_no_weight="true"
       apply_with_weight="true"
       only_selected="false" /><inkscape:path-effect
       effect="bspline"
       id="path-effect16082-7-0"
       is_visible="true"
       lpeversion="1"
       weight="33.333333"
       steps="2"
       helper_size="0"
       apply_no_weight="true"
       apply_with_weight="true"
       only_selected="false" /><inkscape:path-effect
       effect="bspline"
       id="path-effect16138-2"
       is_visible="true"
       lpeversion="1"
       weight="33.333333"
       steps="2"
       helper_size="0"
       apply_no_weight="true"
       apply_with_weight="true"
       only_selected="false" /><linearGradient
       id="linearGradient3777"><stop
         id="stop3779"
         style="stop-color:#b35800;stop-opacity:1"
         offset="0" /></linearGradient></defs><g
     inkscape:label="Patch_Base"
     inkscape:groupmode="layer"
     id="layer1"><path
       style="display:inline;fill:#6298ed;fill-opacity:1;stroke-width:0;stroke-dasharray:none"
       d="m 115.69989,820.06374 c 65.99992,78.87388 152.91315,134.64981 253.89829,162.93748 23.71389,6.64267 80.63466,15.64361 106.47328,16.83678 92.96153,4.2926 181.85193,-16.14401 265.96049,-61.1465 22.13424,-11.84298 79.82656,-53.47638 98.04114,-70.75096 C 922.2941,789.96276 973.82856,694.63725 992.53398,585.92705 1011.1097,477.97077 994.90922,370.23923 945.43306,272.71021 928.9268,240.17256 897.52616,193.80298 875.33904,169.20179 812.4918,99.516493 737.11271,50.369087 651.15159,23.030825 529.65778,-15.607885 398.04362,-6.4872331 282.73324,48.561647 253.11713,62.700306 241.75198,69.617915 207.33921,94.451737 172.92644,119.28556 162.77988,127.89177 140.0289,151.54359 30.18335,265.73857 -19.10563,423.83527 6.3792505,580.23151 20.75829,668.4736 58.93415,752.22545 115.69989,820.06374 Z"
       id="path307-0"
       inkscape:label="Blue_Base" /><path
       style="fill:#02213e;fill-opacity:1;stroke-width:0;stroke-dasharray:none"
       d="M 466.26942,983.79804 C 366.76588,976.65521 273.55963,939.95147 193.98732,876.57605 175.30172,861.69388 135.912,822.03066 120.30677,802.38392 64.162757,731.69941 29.781021,650.18013 17.436471,558.47786 c -3.248628,-24.13263 -3.248628,-93.14418 0,-117.27684 C 32.100853,332.26574 77.829048,237.62068 152.71996,161.20056 227.0915,85.310413 321.02618,36.901869 425.82401,20.458375 c 34.96267,-5.485883 89.25965,-7.107611 121.20436,-3.620107 90.48648,9.878702 171.9318,41.272508 242.22928,93.369352 99.35547,73.63148 166.88924,182.33292 189.04258,304.28034 5.68981,31.32078 6.69977,44.18692 6.69977,85.35148 0,41.16456 -1.00996,54.03072 -6.69977,85.35147 C 950.8288,736.41282 854.45181,864.9223 716.96866,933.65142 639.39778,972.42989 551.85107,989.94163 466.26942,983.79804 Z"
       id="path307"
       inkscape:label="Grey_Base" /></g><g
     inkscape:groupmode="layer"
     id="layer2"
     inkscape:label="Radar_Return"
     style="display:inline"><path
       style="display:inline;fill:#5a5a5a;fill-opacity:1;stroke:none;stroke-width:4.023;stroke-dasharray:none;stroke-opacity:1"
       d="m 342.24762,750.11301 -0.8283,-23.05533 8.93073,-12.15469 c 4.91189,-6.6851 8.98522,-12.27828 9.05187,-12.42931 0.0666,-0.15104 11.56475,-1.20756 25.55139,-2.34781 13.98662,-1.14027 32.90514,-2.71279 42.04112,-3.4945 9.136,-0.78171 22.71486,-1.76042 30.17526,-2.17492 7.46041,-0.4145 14.07444,-1.22004 14.69786,-1.79009 0.62341,-0.57005 0.50157,-4.26811 -0.27078,-8.21793 -1.49839,-7.66291 -5.32924,-36.29049 -5.88992,-44.01499 -0.29726,-4.0953 -0.97372,-4.87486 -5.70177,-6.57089 -36.63989,-13.14328 -60.57793,-32.4235 -77.81843,-62.67664 -11.04762,-19.38604 -18.07184,-45.19868 -18.07184,-66.4104 0,-4.98981 -0.45263,-9.33668 -1.00584,-9.65972 -0.55322,-0.32305 -7.34265,-0.99064 -15.08763,-1.48357 -7.74499,-0.49293 -20.4186,-1.43856 -28.16358,-2.10141 -7.74498,-0.66285 -20.11684,-1.5656 -27.49302,-2.00613 -7.37617,-0.44052 -15.52349,-1.07994 -18.10515,-1.42092 -4.35856,-0.57568 -36.7378,-3.10878 -76.44399,-5.98036 -9.22022,-0.66681 -24.30785,-1.87313 -33.52807,-2.68073 C 87.723913,472.73659 63.197759,470.26246 56.722872,468.59183 41.695715,464.71457 33.504309,443.70039 40.777418,427.68546 c 4.501439,-9.91189 9.977673,-12.37091 35.639848,-16.00346 7.390874,-1.04621 19.473006,-2.82998 26.849184,-3.96397 7.37617,-1.13397 19.44628,-2.94148 26.82245,-4.01669 7.37617,-1.07521 25.78308,-3.79464 40.90424,-6.04316 45.74985,-6.80304 55.25503,-8.19075 65.04445,-9.49624 5.16332,-0.68856 12.70714,-1.82565 16.76404,-2.52689 4.05689,-0.70122 14.31648,-2.24765 22.79908,-3.43652 8.4826,-1.18885 21.15621,-2.9946 28.16358,-4.01277 7.00736,-1.01817 19.98273,-2.83897 28.83414,-4.04622 8.8514,-1.20727 18.80924,-2.60391 22.12852,-3.10367 l 6.03505,-0.90865 0.27476,-15.41159 c 0.89172,-50.01818 9.65717,-90.27279 17.36236,-79.73531 6.13264,8.38689 14.87624,47.37547 17.2825,77.06438 0.50815,6.26975 1.11058,11.71894 1.33873,12.10928 0.49924,0.85419 10.89354,-0.11976 36.58323,-3.42788 l 19.19665,-2.47198 1.86029,-4.45228 c 1.05593,-2.52721 3.98763,-5.70744 6.78042,-7.35522 l 4.92016,-2.90297 -0.49577,-87.95166 -0.49576,-87.95165 4.55877,-10.72899 c 8.39483,-19.75705 17.24197,-30.54956 27.93619,-34.07897 14.36131,-4.73966 27.81759,8.57725 38.18532,37.7898 2.96338,8.34979 2.96628,8.45853 2.54863,95.76059 l -0.41814,87.4013 4.15041,2.14627 c 2.28274,1.18045 5.3528,4.50311 6.82236,7.38368 2.5379,4.97471 3.05992,5.27791 10.40686,6.04447 4.2542,0.44386 14.38642,1.74028 22.51603,2.88091 8.1296,1.14062 17.18218,1.87835 20.11684,1.63936 l 5.33574,-0.43451 0.34791,-6.70562 c 0.77275,-14.89379 7.31242,-52.13299 11.77587,-67.05613 5.09623,-17.03871 8.48372,-19.9271 12.937,-11.03092 5.6383,11.2635 9.18696,34.60744 10.33995,68.01895 l 0.80958,23.45998 6.03505,0.89872 c 3.31928,0.49432 13.27711,1.90687 22.12852,3.13901 8.85141,1.23216 21.82678,3.06013 28.83414,4.06218 7.00737,1.00206 19.37922,2.77195 27.49302,3.93311 8.11379,1.16116 20.48565,2.97528 27.49301,4.03137 7.00737,1.05611 19.07747,2.82516 26.82246,3.93124 34.79039,4.96847 44.0596,6.33928 50.96266,7.53684 4.05689,0.70379 17.63576,2.75558 30.17526,4.55952 76.28602,10.97458 84.70438,12.38775 89.94923,15.09957 8.37024,4.32777 13.55978,16.27589 12.04126,27.72312 -1.66848,12.57757 -8.14476,21.0525 -18.01663,23.57675 -5.40988,1.38332 -32.78781,4.33269 -69.22151,7.45711 -13.27712,1.1386 -30.47702,2.66237 -38.222,3.38618 -7.74498,0.7238 -19.51333,1.64927 -26.15189,2.05659 -6.63856,0.40734 -18.10516,1.29108 -25.48133,1.96386 -7.37618,0.6728 -18.23927,1.56721 -24.14021,1.9876 -5.90094,0.42038 -18.2728,1.36186 -27.49302,2.09217 -9.22021,0.7303 -20.38506,1.59169 -24.81077,1.91421 -53.32767,3.88606 -67.50825,5.0019 -70.07366,5.51397 -2.89764,0.57837 -3.01752,1.15739 -3.01752,14.57358 0,39.61034 -21.67583,80.51847 -55.36832,104.4949 -9.67242,6.88314 -26.48216,15.40592 -37.41312,18.96899 l -7.62014,2.48388 -0.85477,10.147 c -0.47011,5.58085 -1.6813,15.57856 -2.69151,22.21712 -3.51311,23.08605 -3.6307,24.79246 -1.74923,25.3857 0.96804,0.30524 7.79513,0.91138 15.17131,1.34696 7.37617,0.43558 19.74803,1.39077 27.49301,2.12264 7.74499,0.73186 24.61811,2.23867 37.49583,3.34844 12.87773,1.10978 23.79906,2.46527 24.26962,3.01218 0.47057,0.54691 4.58358,5.95649 9.14002,12.02129 l 8.28443,11.0269 -0.36712,23.17173 -0.3671,23.17172 -155.69598,0.34085 -155.69598,0.34085 z"
       id="path7585"
       inkscape:label="E-2_Shadow" /><circle
       style="font-size:80px;-inkscape-font-specification:'sans-serif, Normal';white-space:pre;fill:#3ebbe7;fill-opacity:1;stroke:none;stroke-width:52.8193;stroke-dasharray:none;stroke-opacity:1"
       id="path17805"
       cx="191.33293"
       cy="560.62653"
       r="25" /><circle
       style="font-size:80px;-inkscape-font-specification:'sans-serif, Normal';white-space:pre;fill:#3ebbe7;fill-opacity:1;stroke:none;stroke-width:52.8193;stroke-dasharray:none;stroke-opacity:1"
       id="path17805-7"
       cx="229.81575"
       cy="642.5921"
       r="25" /><circle
       style="font-size:80px;-inkscape-font-specification:'sans-serif, Normal';white-space:pre;fill:#3ebbe7;fill-opacity:1;stroke:none;stroke-width:52.8193;stroke-dasharray:none;stroke-opacity:1"
       id="path17805-4"
       cx="314.58234"
       cy="554.14001"
       r="25" /><circle
       style="font-size:64px;-inkscape-font-specification:'sans-serif, Normal';white-space:pre;fill:#b41a0a;fill-opacity:1;stroke:none;stroke-width:52.8193;stroke-dasharray:none;stroke-opacity:1"
       id="path17805-4-6-3"
       cx="740.78619"
       cy="300.98282"
       r="25" /><circle
       style="font-size:64px;-inkscape-font-specification:'sans-serif, Normal';white-space:pre;fill:#f1c40f;fill-opacity:1;stroke:none;stroke-width:52.8193;stroke-dasharray:none;stroke-opacity:1"
       id="path17805-4-6-1"
       cx="808.35376"
       cy="420.14743"
       r="25" /><circle
       style="font-size:64px;-inkscape-font-specification:'sans-serif, Normal';white-space:pre;fill:#f1c40f;fill-opacity:1;stroke:none;stroke-width:52.8193;stroke-dasharray:none;stroke-opacity:1"
       id="path17805-4-6-1-7"
       cx="694.10315"
       cy="420.1474"
       r="25" /><circle
       style="display:inline;fill:none;fill-opacity:1;stroke:#5ef96e;stroke-width:10;stroke-dasharray:none;stroke-opacity:1"
       id="path2970-5-7-6"
       cx="500"
       cy="500"
       inkscape:label="Green_Inner"
       r="142.49979" /><ellipse
       style="display:inline;fill:none;fill-opacity:1;stroke:#5ef96e;stroke-width:12.5;stroke-dasharray:none;stroke-opacity:1"
       id="path2970-5-7"
       cx="499.99997"
       cy="500"
       inkscape:label="Green_Middle"
       rx="254.60542"
       ry="254.60544" /><circle
       style="display:inline;fill:none;fill-opacity:1;stroke:#5ef96e;stroke-width:15;stroke-dasharray:none;stroke-opacity:1"
       id="circle1431"
       cx="-700.27295"
       cy="98.245552"
       inkscape:label="Green_Outer"
       r="371.03796"
       transform="rotate(-127.01514)" /><circle
       style="display:inline;fill:none;fill-opacity:1;stroke:none;stroke-width:15.9687;stroke-dasharray:none;stroke-opacity:1"
       id="path2970-5"
       cx="-694.45612"
       cy="133.15413"
       inkscape:label="Text_Guide"
       r="395"
       transform="rotate(-124.14588)" /><path
       style="fill:#5ef96e;fill-opacity:1;stroke:none;stroke-width:12.5;stroke-dasharray:none;stroke-opacity:1"
       d="m 761.87572,337.22344 c 13.51355,-9.00902 35.83133,-23.54629 29.58649,-46.7852 -6.24483,-23.23891 -41.05166,-55.1793 -51.49375,-65.92864 -10.44208,-10.74934 3.48065,-0.30729 18.837,14.33264 15.35634,14.63994 32.14552,33.47658 42.79247,46.58073 10.64694,13.10415 15.15136,20.47501 16.0723,25.79802 0.92094,5.323 -1.74076,8.59894 -9.31638,13.20572 -7.57562,4.60678 -20.06513,10.54442 -34.60261,18.22266 -14.53748,7.67823 -31.12192,17.09656 -37.26459,19.14416 -6.14268,2.04759 -1.84301,-3.27581 2.66167,-7.67809 4.50469,-4.40229 9.21384,-7.88297 22.7274,-16.892 z"
       id="path16080"
       inkscape:path-effect="#path-effect16082"
       inkscape:original-d="m 753.07125,342.75184 c 22.31878,-14.53626 44.63655,-29.07353 66.95332,-43.61179 -34.80723,-31.94067 -69.61407,-63.88106 -104.4226,-95.8231 13.92429,10.44347 27.84702,20.88552 41.76904,31.32678 16.79085,18.8384 33.58003,37.67504 50.36855,56.51106 4.50559,7.37216 9.01001,14.74302 13.51351,22.11302 -2.6608,3.27707 -5.3225,6.55301 -7.98526,9.82801 -12.48901,5.93888 -24.97852,11.87652 -37.46928,17.81327 -16.5841,9.4197 -33.16854,18.83802 -49.7543,28.25553 4.30084,-5.32261 8.60051,-10.64601 12.89926,-15.97052 4.71035,-3.47982 9.41951,-6.9605 14.12776,-10.44226 z" /><path
       style="fill:#5ef96e;fill-opacity:1;stroke:none;stroke-width:8.95249;stroke-dasharray:none;stroke-opacity:1"
       d="m 680.25272,390.99523 c 9.67839,-6.45225 25.66235,-16.86382 21.18981,-33.5075 -4.47254,-16.64368 -29.40116,-39.51936 -36.87977,-47.21802 -7.4786,-7.69867 2.49284,-0.22008 13.49104,10.26502 10.9982,10.48511 23.02259,23.97589 30.64792,33.36106 7.62533,9.38518 10.85139,14.66418 11.51096,18.47651 0.65958,3.81233 -1.24673,6.15855 -6.67238,9.45792 -5.42565,3.29938 -14.37062,7.55191 -24.78235,13.05105 -10.41172,5.49914 -22.28948,12.24454 -26.68886,13.71103 -4.39938,1.46649 -1.31996,-2.34613 1.90629,-5.49905 3.22625,-3.15291 6.59894,-5.64577 16.27734,-12.09802 z"
       id="path16080-7"
       inkscape:path-effect="#path-effect16082-7"
       inkscape:original-d="m 673.94697,394.95466 c 15.98468,-10.41085 31.96864,-20.82243 47.95189,-31.23471 -24.9289,-22.87587 -49.85752,-45.75154 -74.78735,-68.62839 9.97256,7.4796 19.94401,14.95818 29.91494,22.4362 12.02559,13.49204 24.04998,26.98282 36.0739,40.47315 3.22689,5.27994 6.45295,10.55894 9.67836,15.83732 -1.90567,2.34704 -3.81197,4.69326 -5.71904,7.03881 -8.94461,4.25342 -17.88958,8.50595 -26.83545,12.75785 -11.87751,6.74637 -23.75527,13.49176 -35.63397,20.23657 3.08025,-3.81204 6.15967,-7.62466 9.23843,-11.43807 3.37355,-2.49224 6.74624,-4.9851 10.11829,-7.47873 z" /><path
       style="fill:#5ef96e;fill-opacity:1;stroke:none;stroke-width:6.95133;stroke-dasharray:none;stroke-opacity:1"
       d="m 593.69705,447.31059 c 7.51497,-5.00998 19.92601,-13.09423 16.45322,-26.01752 -3.47278,-12.9233 -22.82908,-30.68554 -28.63598,-36.66331 -5.8069,-5.97777 1.93561,-0.17088 10.47537,7.97047 8.53975,8.14135 17.87631,18.61652 23.79714,25.90381 5.92083,7.28729 8.42577,11.38627 8.93791,14.34643 0.51213,2.96016 -0.96805,4.78192 -5.1809,7.34378 -4.21285,2.56186 -11.15834,5.86382 -19.24271,10.13373 -8.08438,4.26991 -17.30708,9.50749 -20.72306,10.64617 -3.41598,1.13869 -1.02491,-1.82169 1.48017,-4.26983 2.50509,-2.44814 5.12387,-4.38376 12.63884,-9.39373 z"
       id="path16080-7-5"
       inkscape:path-effect="#path-effect16082-7-0"
       inkscape:original-d="m 588.80084,450.38496 c 12.4116,-8.0837 24.82264,-16.16796 37.23313,-24.25277 -19.35651,-17.76239 -38.7128,-35.52463 -58.07003,-53.28778 7.74338,5.80767 15.4859,11.61455 23.22801,17.421 9.3375,10.47614 18.67406,20.95131 28.01025,31.42613 2.50558,4.0997 5.01052,8.19868 7.51495,12.29718 -1.4797,1.8224 -2.95988,3.64417 -4.44066,5.46541 -6.94521,3.30265 -13.8907,6.60461 -20.83688,9.90607 -9.22251,5.23835 -18.44522,10.47593 -27.66866,15.71306 2.39172,-2.95993 4.78279,-5.92031 7.17335,-8.8813 2.61946,-1.93515 5.23824,-3.87077 7.85654,-5.807 z" /><path
       style="fill:#5ef96e;fill-opacity:1;stroke:none;stroke-width:12.5;stroke-dasharray:none;stroke-opacity:1"
       d="m 760.74981,339.47566 c -10.5448,5.73302 -25.08206,14.94678 -38.80016,10.95462 -13.71811,-3.99216 -26.61711,-21.19083 -33.78386,-28.86943 -7.16675,-7.67861 -8.59997,-5.83589 -3.48061,2.45712 5.11936,8.29301 16.78989,23.03473 24.77527,32.45322 7.98538,9.41848 12.28505,13.5134 18.32482,12.59142 6.03977,-0.92197 13.82012,-6.85961 23.54587,-14.33308 9.72574,-7.47347 21.39627,-16.4823 23.95581,-19.8607 2.55954,-3.3784 -3.99234,-1.12619 -14.53714,4.60683 z"
       id="path16136"
       inkscape:path-effect="#path-effect16138"
       inkscape:original-d="m 764.74202,335.99509 c -14.53627,9.21476 -29.07353,18.42851 -43.6118,27.64127 -12.89852,-17.19836 -25.79752,-34.39703 -38.69779,-51.59705 -1.43228,1.84379 -2.8655,3.68651 -4.29975,5.52826 11.67199,14.74331 23.34252,29.48503 35.01228,44.22604 4.30084,4.09609 8.60051,8.19101 12.89927,12.28501 7.78166,-5.93687 15.56201,-11.87451 23.34152,-17.81326 11.67199,-9.00819 23.34252,-18.01702 35.01228,-27.02703 -6.55113,2.2533 -13.10301,4.5055 -19.65601,6.75676 z" /><path
       style="fill:#5ef96e;fill-opacity:1;stroke:none;stroke-width:9.13605;stroke-dasharray:none;stroke-opacity:1"
       d="m 653.39501,409.32231 c -7.70703,4.19018 -18.33209,10.92437 -28.35844,8.00656 -10.02635,-2.9178 -19.45403,-15.48804 -24.69209,-21.10022 -5.23806,-5.61217 -6.28558,-4.26535 -2.54392,1.79588 3.74166,6.06123 12.27147,16.83572 18.10785,23.71955 5.83639,6.88382 8.97896,9.87674 13.39333,9.20288 4.41438,-0.67387 10.10091,-5.01359 17.20931,-10.47583 7.10839,-5.46225 15.6382,-12.04666 17.50892,-14.51588 1.87073,-2.46922 -2.91793,-0.82312 -10.62496,3.36706 z"
       id="path16136-7"
       inkscape:path-effect="#path-effect16138-2"
       inkscape:original-d="m 656.31285,406.77842 c -10.62433,6.73493 -21.24939,13.46911 -31.87518,20.20257 -9.42733,-12.57001 -18.85501,-25.14025 -28.28361,-37.71147 -1.04683,1.34759 -2.09435,2.69441 -3.14262,4.04051 8.53087,10.77566 17.06068,21.55015 25.58993,32.32413 3.14341,2.99376 6.28598,5.98668 9.42787,8.97892 5.6875,-4.33917 11.37403,-8.6789 17.05995,-13.01944 8.53088,-6.58394 17.06069,-13.16835 25.58993,-19.75363 -4.78812,1.6469 -9.57678,3.293 -14.36627,4.93841 z" /></g><g
     inkscape:groupmode="layer"
     id="layer3"
     inkscape:label="All_Seeing_Eye"
     style="display:inline"><rect
       style="display:inline;fill:#5a5a5a;fill-opacity:1;stroke:none;stroke-width:11.057;stroke-dasharray:none;stroke-opacity:1"
       id="rect13242"
       width="9.8986263"
       height="164.68452"
       x="672.09082"
       y="-448.40836"
       transform="matrix(0.515613,0.85682159,-0.90360534,0.42836595,0,0)"
       inkscape:transform-center-x="-77.017282"
       inkscape:transform-center-y="-39.746636" /><g
       style="display:inline;fill:#000000"
       id="g9737"
       transform="matrix(0.53374908,0,0,0.53374908,382.23252,381.37306)"
       inkscape:label="All_Seeing_Eye"><path
         style="fill:#fafffa;fill-opacity:1;stroke:none;stroke-width:10;stroke-dasharray:none;stroke-opacity:1"
         d="m 359.33685,491.60582 c 9.21357,-12.89989 30.09809,-31.73691 50.57355,-45.04583 20.47546,-13.30892 40.54058,-21.08927 60.40179,-24.77465 19.86121,-3.68539 39.51684,-3.2759 58.76364,0.81942 19.24681,4.09532 38.08345,11.87567 54.87308,21.0897 16.78962,9.21402 31.53134,19.86082 42.79262,28.86998 11.26129,9.00916 19.04164,16.38003 22.72657,21.70351 3.68493,5.32348 3.27544,8.59941 -5.32412,16.99383 -8.59956,8.39442 -25.38874,21.90766 -46.27332,33.78322 -20.88457,11.87556 -45.8636,22.11286 -68.38611,27.84596 -22.5225,5.73309 -42.58762,6.96156 -63.06272,3.07151 -20.47509,-3.89006 -41.35919,-12.89889 -59.99167,-23.34112 -18.63247,-10.44223 -35.01216,-22.3175 -44.43104,-31.73589 -9.41889,-9.41839 -11.87584,-16.37976 -2.66227,-29.27964 z"
         id="path11544"
         inkscape:path-effect="#path-effect11546"
         inkscape:original-d="m 347.66585,497.543 c 20.88552,-18.83602 41.77004,-37.67304 62.65356,-56.51106 20.06692,-7.77966 40.13204,-15.56001 60.19656,-23.34152 19.65741,0.41051 39.31304,0.82 58.96806,1.2285 18.8384,7.78166 37.67504,15.56201 56.51106,23.34152 14.74331,10.64823 29.48503,21.29502 44.22604,31.94103 7.78166,7.37216 15.56202,14.74302 23.34152,22.11303 -0.40851,3.27707 -0.818,6.553 -1.2285,9.82801 -16.78885,13.51478 -33.57803,27.02802 -50.36855,40.54054 -24.97902,10.23871 -49.95805,20.47602 -74.93857,30.71253 -20.06492,1.22952 -40.13004,2.458 -60.19656,3.6855 -20.88394,-9.00819 -41.76804,-18.01702 -62.65357,-27.02703 -16.37934,-11.87475 -32.75903,-23.75002 -49.14004,-35.62653 -2.45606,-6.96065 -4.91301,-13.92202 -7.37101,-20.88452 z"
         transform="matrix(1.3364889,0,0,1.3364889,-447.6372,-447.16634)" /><rect
         style="fill:#b41a0a;fill-opacity:1;stroke:none;stroke-width:0;stroke-dasharray:none;stroke-opacity:1"
         id="rect10726"
         width="17.434595"
         height="31.516382"
         x="631.66882"
         y="484.81586"
         transform="matrix(1.3364889,0,0,1.3364889,-447.6372,-447.16634)"
         inkscape:label="Right_Eye_Corner" /><rect
         style="fill:#b41a0a;fill-opacity:1;stroke:none;stroke-width:0;stroke-dasharray:none;stroke-opacity:1"
         id="rect10726-9"
         width="17.434595"
         height="31.516382"
         x="350.03302"
         y="481.79834"
         transform="matrix(1.3364889,0,0,1.3364889,-447.6372,-447.16634)"
         inkscape:label="Left_Eye_Corner" /><g
         id="g9723">
	<g
   id="g9713">
		<path
   d="m 221.02,341.304 c -49.708,0 -103.206,-19.44 -154.71,-56.22 C 27.808,257.59 4.044,230.351 3.051,229.203 c -4.068,-4.697 -4.068,-11.669 0,-16.367 0.993,-1.146 24.756,-28.387 63.259,-55.881 51.505,-36.777 105.003,-56.219 154.71,-56.219 49.708,0 103.207,19.441 154.71,56.219 38.502,27.494 62.266,54.734 63.259,55.881 4.068,4.697 4.068,11.669 0,16.367 -0.993,1.146 -24.756,28.387 -63.259,55.881 -51.503,36.779 -105.001,56.22 -154.71,56.22 z M 29.638,221.021 c 9.61,9.799 27.747,27.03 51.694,44.071 32.83,23.361 83.714,51.212 139.688,51.212 55.974,0 106.859,-27.851 139.688,-51.212 23.944,-17.038 42.082,-34.271 51.694,-44.071 -9.609,-9.799 -27.747,-27.03 -51.694,-44.071 -32.829,-23.362 -83.714,-51.212 -139.688,-51.212 -55.974,0 -106.858,27.85 -139.688,51.212 -23.944,17.038 -42.082,34.269 -51.694,44.071 z"
   id="path9711" />
	</g>
	<g
   id="g9717">
		<path
   d="m 221.02,298.521 c -42.734,0 -77.5,-34.767 -77.5,-77.5 0,-42.733 34.766,-77.5 77.5,-77.5 18.794,0 36.924,6.814 51.048,19.188 5.193,4.549 5.715,12.446 1.166,17.639 -4.549,5.193 -12.447,5.714 -17.639,1.166 -9.564,-8.379 -21.844,-12.993 -34.576,-12.993 -28.949,0 -52.5,23.552 -52.5,52.5 0,28.948 23.551,52.5 52.5,52.5 28.95,0 52.5,-23.552 52.5,-52.5 0,-6.903 5.597,-12.5 12.5,-12.5 6.903,0 12.5,5.597 12.5,12.5 0.002,42.733 -34.765,77.5 -77.499,77.5 z"
   id="path9715"
   style="fill:#5ef96e;fill-opacity:1" />
	</g>
	<g
   id="g9721">
		<path
   d="m 221.02,246.021 c -13.785,0 -25,-11.215 -25,-25 0,-13.785 11.215,-25 25,-25 13.786,0 25,11.215 25,25 0,13.785 -11.214,25 -25,25 z"
   id="path9719" />
	</g>
</g></g></g><path
     sodipodi:type="star"
     style="display:inline;fill:#5ef96e;fill-opacity:1;stroke:none;stroke-width:12.5;stroke-dasharray:none;stroke-opacity:1"
     id="path16272"
     inkscape:flatsided="true"
     sodipodi:sides="3"
     sodipodi:cx="198.40295"
     sodipodi:cy="312.65356"
     sodipodi:r1="100.39381"
     sodipodi:r2="50.196903"
     sodipodi:arg1="1.4973093"
     sodipodi:arg2="2.5445068"
     inkscape:rounded="0"
     inkscape:randomized="0"
     d="M 205.77396,412.77641 108.00852,268.97562 281.42638,256.20866 Z"
     inkscape:transform-center-x="-158.82301"
     inkscape:transform-center-y="-95.599792"
     transform="matrix(1.8163264,-1.1351786,0.98131934,-0.28681666,51.024532,698.36786)" /><text
     xml:space="preserve"
     id="text3837"
     style="font-style:normal;font-variant:normal;font-weight:normal;font-stretch:normal;font-size:106.667px;font-family:'All American';-inkscape-font-specification:'All American, Normal';font-variant-ligatures:normal;font-variant-caps:normal;font-variant-numeric:normal;font-variant-east-asian:normal;white-space:pre;fill:#ffffff;fill-opacity:1;stroke:none;stroke-width:1;stroke-dasharray:none;word-spacing:1px;letter-spacing:5px"><textPath
       xlink:href="#path2970-5"
       id="textPath1411"><tspan
         id="tspan3965"
         style="font-style:normal;font-variant:normal;font-weight:normal;font-stretch:normal;font-size:106.667px;font-family:'All American';-inkscape-font-specification:'All American, Normal';font-variant-ligatures:normal;font-variant-caps:normal;font-variant-numeric:normal;font-variant-east-asian:normal">DigiWACS</tspan></textPath></text></svg>
